<svg width="100" height="104" viewBox="0 0 100 104" fill="none" xmlns="http://www.w3.org/2000/svg">
<path d="M12.5 39.1667C12.5 29.8325 12.5 25.1654 14.3166 21.6002C15.9144 18.4641 18.4641 15.9144 21.6002 14.3166C25.1654 12.5 29.8325 12.5 39.1667 12.5H60.8333C70.1675 12.5 74.8346 12.5 78.3998 14.3166C81.5359 15.9144 84.0855 18.4641 85.6834 21.6002C87.5 25.1654 87.5 29.8325 87.5 39.1667V60.8333C87.5 70.1675 87.5 74.8346 85.6834 78.3998C84.0855 81.5359 81.5359 84.0855 78.3998 85.6834C74.8346 87.5 70.1675 87.5 60.8333 87.5H39.1667C29.8325 87.5 25.1654 87.5 21.6002 85.6834C18.4641 84.0855 15.9144 81.5359 14.3166 78.3998C12.5 74.8346 12.5 70.1675 12.5 60.8333V39.1667Z" fill="#4E8AF4"/>
<path fill-rule="evenodd" clip-rule="evenodd" d="M45.8333 33.3333C45.8333 31.0321 47.6988 29.1666 50 29.1666H66.6667C68.9678 29.1666 70.8333 31.0321 70.8333 33.3333C70.8333 35.6345 68.9678 37.5 66.6667 37.5H50C47.6988 37.5 45.8333 35.6345 45.8333 33.3333ZM50 45.8333C47.6988 45.8333 45.8333 47.6988 45.8333 50C45.8333 52.3011 47.6988 54.1666 50 54.1666H66.6667C68.9678 54.1666 70.8333 52.3011 70.8333 50C70.8333 47.6988 68.9678 45.8333 66.6667 45.8333H50ZM50 62.5C47.6988 62.5 45.8333 64.3654 45.8333 66.6666C45.8333 68.9678 47.6988 70.8333 50 70.8333H66.6667C68.9678 70.8333 70.8333 68.9678 70.8333 66.6666C70.8333 64.3654 68.9678 62.5 66.6667 62.5H50ZM33.3333 70.8333C35.6345 70.8333 37.5 68.9678 37.5 66.6666C37.5 64.3654 35.6345 62.5 33.3333 62.5C31.0321 62.5 29.1667 64.3654 29.1667 66.6666C29.1667 68.9678 31.0321 70.8333 33.3333 70.8333ZM37.5 50C37.5 52.3011 35.6345 54.1666 33.3333 54.1666C31.0321 54.1666 29.1667 52.3011 29.1667 50C29.1667 47.6988 31.0321 45.8333 33.3333 45.8333C35.6345 45.8333 37.5 47.6988 37.5 50ZM33.3333 37.5C35.6345 37.5 37.5 35.6345 37.5 33.3333C37.5 31.0321 35.6345 29.1666 33.3333 29.1666C31.0321 29.1666 29.1667 31.0321 29.1667 33.3333C29.1667 35.6345 31.0321 37.5 33.3333 37.5Z" fill="#BDE3FF"/>
<path d="M56.25 69.5833C56.25 64.9162 56.25 62.5827 57.1583 60.8001C57.9572 59.2321 59.2321 57.9572 60.8001 57.1583C62.5827 56.25 64.9162 56.25 69.5833 56.25H80.4167C85.0838 56.25 87.4173 56.25 89.1999 57.1583C90.7679 57.9572 92.0428 59.2321 92.8417 60.8001C93.75 62.5827 93.75 64.9162 93.75 69.5833V80.4167C93.75 85.0838 93.75 87.4173 92.8417 89.1999C92.0428 90.7679 90.7679 92.0428 89.1999 92.8417C87.4173 93.75 85.0838 93.75 80.4167 93.75H69.5833C64.9162 93.75 62.5827 93.75 60.8001 92.8417C59.2321 92.0428 57.9572 90.7679 57.1583 89.1999C56.25 87.4173 56.25 85.0838 56.25 80.4167V69.5833Z" fill="#BDE3FF"/>
<path fill-rule="evenodd" clip-rule="evenodd" d="M75 64.5833C76.1506 64.5833 77.0833 65.5161 77.0833 66.6666V72.9166H83.3333C84.4839 72.9166 85.4167 73.8494 85.4167 75C85.4167 76.1506 84.4839 77.0833 83.3333 77.0833H77.0833V83.3333C77.0833 84.4839 76.1506 85.4166 75 85.4166C73.8494 85.4166 72.9167 84.4839 72.9167 83.3333V77.0833H66.6667C65.5161 77.0833 64.5833 76.1506 64.5833 75C64.5833 73.8494 65.5161 72.9166 66.6667 72.9166H72.9167V66.6666C72.9167 65.5161 73.8494 64.5833 75 64.5833Z" fill="#4E8AF4"/>
</svg>
