<svg width="48" height="48" viewBox="0 0 48 48" fill="none" xmlns="http://www.w3.org/2000/svg">
<path d="M44 24C44 35.0457 35.0457 44 24 44C12.9543 44 4 35.0457 4 24C4 12.9543 12.9543 4 24 4C35.0457 4 44 12.9543 44 24Z" fill="#BDE3FF"/>
<path fill-rule="evenodd" clip-rule="evenodd" d="M22 10C22 8.89543 22.8954 8 24 8C25.1046 8 26 8.89543 26 10V12C29.3137 12 32 14.6863 32 18C32 19.1046 31.1046 20 30 20C28.8954 20 28 19.1046 28 18C28 16.8954 27.1046 16 26 16H22C20.8954 16 20 16.8954 20 18V19.117C20 19.9778 20.5509 20.7421 21.3675 21.0143L27.8974 23.1909C30.3474 24.0076 32 26.3005 32 28.883V30C32 33.3137 29.3137 36 26 36V38C26 39.1046 25.1046 40 24 40C22.8954 40 22 39.1046 22 38V36C18.6863 36 16 33.3137 16 30C16 28.8954 16.8954 28 18 28C19.1046 28 20 28.8954 20 30C20 31.1046 20.8954 32 22 32H26C27.1046 32 28 31.1046 28 30V28.883C28 28.0222 27.4491 27.2579 26.6325 26.9857L20.1026 24.8091C17.6526 23.9924 16 21.6995 16 19.117V18C16 14.6863 18.6863 12 22 12V10Z" fill="#4E8AF4"/>
</svg>
