<svg width="27" height="20" viewBox="0 0 27 20" fill="none" xmlns="http://www.w3.org/2000/svg">
<path d="M2.41623 8H17.2734C17.7659 8 18.2383 8.21071 18.5866 8.58579C18.9348 8.96086 19.1305 9.46957 19.1305 10C19.1305 10.5304 18.9348 11.0391 18.5866 11.4142C18.2383 11.7893 17.7659 12 17.2734 12H2.41623C1.92368 12 1.45131 11.7893 1.10303 11.4142C0.754745 11.0391 0.559082 10.5304 0.559082 10C0.559082 9.46957 0.754745 8.96086 1.10303 8.58579C1.45131 8.21071 1.92368 8 2.41623 8ZM20.9877 4H2.41623C1.92368 4 1.45131 3.78929 1.10303 3.41421C0.754745 3.03914 0.559082 2.53043 0.559082 2C0.559082 1.46957 0.754745 0.960859 1.10303 0.585786C1.45131 0.210714 1.92368 0 2.41623 0L20.9877 0C21.4802 0 21.9526 0.210714 22.3009 0.585786C22.6491 0.960859 22.8448 1.46957 22.8448 2C22.8448 2.53043 22.6491 3.03914 22.3009 3.41421C21.9526 3.78929 21.4802 4 20.9877 4ZM2.41623 16H24.7019C25.1945 16 25.6669 16.2107 26.0151 16.5858C26.3634 16.9609 26.5591 17.4696 26.5591 18C26.5591 18.5304 26.3634 19.0391 26.0151 19.4142C25.6669 19.7893 25.1945 20 24.7019 20H2.41623C1.92368 20 1.45131 19.7893 1.10303 19.4142C0.754745 19.0391 0.559082 18.5304 0.559082 18C0.559082 17.4696 0.754745 16.9609 1.10303 16.5858C1.45131 16.2107 1.92368 16 2.41623 16Z" fill="#4E8AF4"/>
</svg>
