<svg width="50" height="50" viewBox="0 0 50 50" fill="none" xmlns="http://www.w3.org/2000/svg">
<circle cx="25" cy="25" r="25" fill="#8B5CF6" fill-opacity="0.22"/>
<path d="M23.9999 29.306C23.2859 29.306 22.7073 28.7273 22.7073 28.0133C22.7073 27.7567 22.4973 27.5467 22.2406 27.5467C21.9839 27.5467 21.7739 27.7567 21.7739 28.0133C21.7739 29.0773 22.5299 29.9687 23.5333 30.188V30.5287C23.5333 30.7853 23.7433 30.9953 23.9999 30.9953C24.2566 30.9953 24.4666 30.7853 24.4666 30.5287V30.188C25.4699 29.9733 26.2259 29.082 26.2259 28.0133C26.2259 26.702 25.2273 26.1793 24.1539 25.8153C23.1459 25.47 22.7119 25.078 22.7119 24.4993C22.7119 23.79 23.2906 23.2067 24.0046 23.2067C24.7186 23.2067 25.2973 23.7853 25.2973 24.4993C25.2973 24.756 25.5073 24.966 25.7639 24.966C26.0206 24.966 26.2306 24.756 26.2306 24.4993C26.2306 23.4353 25.4746 22.544 24.4713 22.3247V21.984C24.4713 21.7273 24.2613 21.5173 24.0046 21.5173C23.7479 21.5173 23.5379 21.7273 23.5379 21.984V22.3247C22.5346 22.5393 21.7786 23.4307 21.7786 24.4993C21.7786 25.8387 22.9639 26.394 23.8506 26.6973C24.9286 27.066 25.2926 27.3973 25.2926 28.0133C25.2926 28.7273 24.7139 29.306 23.9999 29.306Z" fill="#8B5CF6"/>
<path d="M15.7026 29.012C15.7026 33.4873 18.414 35.6666 24 35.6666C29.586 35.6666 32.2973 33.4873 32.2973 29.012C32.2973 25.1153 30.09 19.7206 26.7626 17.6813L28.0226 12.9213C28.06 12.7813 28.0273 12.632 27.9433 12.5153C27.8546 12.3986 27.7193 12.3333 27.5746 12.3333H24.448C24.2566 12.3333 24.0793 12.45 24.014 12.632L23.748 13.3133H19.8653C19.7113 13.3133 19.5666 13.388 19.478 13.5186C19.3893 13.6446 19.3706 13.808 19.4266 13.9526L20.9526 17.854C17.7886 20.0146 15.7026 25.2226 15.7026 29.012ZM20.5513 14.2466H23.3886L23.0993 14.9933C23.006 15.236 23.1273 15.502 23.3653 15.5953C23.608 15.6886 23.874 15.5673 23.9673 15.3293L24.77 13.2666H26.968L25.9133 17.2426C25.302 16.9906 24.6673 16.846 24 16.846C23.2206 16.846 22.4786 17.0373 21.7786 17.378L20.5513 14.2466ZM24 17.7793C27.8966 17.7793 31.364 24.0606 31.364 29.0073C31.364 32.9693 29.096 34.7333 24 34.7333C18.904 34.7333 16.636 32.9693 16.636 29.012C16.636 24.0606 20.1033 17.7793 24 17.7793Z" fill="#8B5CF6"/>
</svg>
