<svg width="11" height="12" viewBox="0 0 11 12" fill="none" xmlns="http://www.w3.org/2000/svg">
<path d="M10.7679 10.6816L8.44314 8.35654C9.19763 7.45077 9.57391 6.28895 9.49368 5.11278C9.41346 3.93661 8.88292 2.83666 8.01242 2.04174C7.14193 1.24683 5.99852 0.818169 4.82005 0.844932C3.64158 0.871694 2.5188 1.35182 1.68528 2.18543C0.851766 3.01904 0.371691 4.14194 0.344932 5.32054C0.318172 6.49914 0.746788 7.64268 1.54161 8.51327C2.33644 9.38386 3.43627 9.91446 4.61231 9.99469C5.78835 10.0749 6.95004 9.69861 7.85571 8.94403L10.1805 11.2691C10.2584 11.3469 10.3641 11.3906 10.4742 11.3906C10.5843 11.3906 10.69 11.3469 10.7679 11.2691C10.8068 11.2307 10.8376 11.1849 10.8587 11.1345C10.8798 11.0841 10.8906 11.03 10.8906 10.9753C10.8906 10.9207 10.8798 10.8666 10.8587 10.8161C10.8376 10.7657 10.8068 10.72 10.7679 10.6816ZM1.19173 5.43293C1.18982 4.81728 1.33986 4.21068 1.62855 3.66692C1.91723 3.12317 2.33563 2.65907 2.84663 2.31579C3.35764 1.97251 3.94546 1.76066 4.55795 1.69903C5.17044 1.6374 5.78867 1.72789 6.35781 1.96249C6.92695 2.19708 7.4294 2.56853 7.82061 3.04387C8.21181 3.51922 8.47967 4.08377 8.60043 4.68746C8.72118 5.29115 8.6911 5.91531 8.51286 6.50459C8.33462 7.09387 8.01372 7.63004 7.57862 8.06556V8.06556C7.05682 8.58974 6.39127 8.94733 5.66619 9.09308C4.9411 9.23882 4.18909 9.16617 3.50531 8.88432C2.82152 8.60247 2.23671 8.12409 1.82488 7.50972C1.41304 6.89534 1.1927 6.17259 1.19173 5.43293V5.43293Z" fill="#82868C"/>
</svg>
