<svg width="30" height="30" viewBox="0 0 30 30" fill="none" xmlns="http://www.w3.org/2000/svg">
<path d="M0 15C0 6.71573 6.71573 0 15 0V0C23.2843 0 30 6.71573 30 15V15C30 23.2843 23.2843 30 15 30V30C6.71573 30 0 23.2843 0 15V15Z" fill="#4E8AF4"/>
<path d="M15.0001 17.6552C15.9333 17.6552 16.6897 16.8987 16.6897 15.9655C16.6897 15.0324 15.9333 14.2759 15.0001 14.2759C14.0669 14.2759 13.3104 15.0324 13.3104 15.9655C13.3104 16.8987 14.0669 17.6552 15.0001 17.6552Z" fill="white"/>
<path d="M20.069 11.8621H18.4861C18.3847 11.8621 18.2859 11.8302 18.2037 11.771C18.1214 11.7117 18.06 11.6281 18.0279 11.5319L17.8754 11.0737C17.8112 10.8815 17.6882 10.7143 17.5238 10.5959C17.3593 10.4774 17.1618 10.4137 16.9591 10.4138H13.0405C12.8379 10.4139 12.6404 10.4777 12.476 10.5962C12.3117 10.7147 12.1888 10.882 12.1247 11.0742L11.9722 11.5319C11.9402 11.6281 11.8787 11.7117 11.7964 11.771C11.7142 11.8302 11.6154 11.8621 11.5141 11.8621H9.93109C9.67502 11.8621 9.42944 11.9638 9.24837 12.1449C9.0673 12.326 8.96558 12.5715 8.96558 12.8276V18.6207C8.96558 18.8768 9.0673 19.1224 9.24837 19.3034C9.42944 19.4845 9.67502 19.5862 9.93109 19.5862H20.069C20.3251 19.5862 20.5707 19.4845 20.7517 19.3034C20.9328 19.1224 21.0345 18.8768 21.0345 18.6207V12.8276C21.0345 12.5715 20.9328 12.326 20.7517 12.1449C20.5707 11.9638 20.3251 11.8621 20.069 11.8621V11.8621ZM15.0001 18.6207C13.5363 18.6207 12.3449 17.4293 12.3449 15.9655C12.3449 14.5018 13.5363 13.3104 15.0001 13.3104C16.4638 13.3104 17.6552 14.5018 17.6552 15.9655C17.6552 17.4293 16.4638 18.6207 15.0001 18.6207ZM17.8966 13.7931C17.7686 13.7931 17.6458 13.7423 17.5552 13.6517C17.4647 13.5612 17.4139 13.4384 17.4139 13.3104C17.4139 13.1823 17.4647 13.0595 17.5552 12.969C17.6458 12.8785 17.7686 12.8276 17.8966 12.8276C18.0246 12.8276 18.1474 12.8785 18.238 12.969C18.3285 13.0595 18.3794 13.1823 18.3794 13.3104C18.3794 13.4384 18.3285 13.5612 18.238 13.6517C18.1474 13.7423 18.0246 13.7931 17.8966 13.7931Z" fill="white"/>
<path d="M10.6553 11.3794H9.68974C9.62573 11.3794 9.56433 11.3539 9.51906 11.3087C9.4738 11.2634 9.44836 11.202 9.44836 11.138C9.44836 11.074 9.4738 11.0126 9.51906 10.9673C9.56433 10.922 9.62573 10.8966 9.68974 10.8966H10.6553C10.7193 10.8966 10.7807 10.922 10.8259 10.9673C10.8712 11.0126 10.8966 11.074 10.8966 11.138C10.8966 11.202 10.8712 11.2634 10.8259 11.3087C10.7807 11.3539 10.7193 11.3794 10.6553 11.3794Z" fill="white"/>
<path d="M15 28C7.8203 28 2 22.1797 2 15H-2C-2 24.3888 5.61116 32 15 32V28ZM28 15C28 22.1797 22.1797 28 15 28V32C24.3888 32 32 24.3888 32 15H28ZM15 2C22.1797 2 28 7.8203 28 15H32C32 5.61116 24.3888 -2 15 -2V2ZM15 -2C5.61116 -2 -2 5.61116 -2 15H2C2 7.8203 7.8203 2 15 2V-2Z" fill="white"/>
</svg>
