<svg width="30" height="30" viewBox="0 0 30 30" fill="none" xmlns="http://www.w3.org/2000/svg">
<path d="M24.3751 7.83088V26.0295C24.3751 26.4682 24.2007 26.8891 23.8905 27.1993C23.5802 27.5096 23.1594 27.6839 22.7206 27.6839H7.27942C6.84064 27.6839 6.41983 27.5096 6.10957 27.1993C5.7993 26.8891 5.625 26.4682 5.625 26.0295V3.97058C5.625 3.5318 5.7993 3.11099 6.10957 2.80073C6.41983 2.49047 6.84064 2.31616 7.27942 2.31616H18.8603L24.3751 7.83088Z" stroke="#82868C" stroke-width="1.4" stroke-linecap="round" stroke-linejoin="round"/>
<path d="M18.8604 2.31616V6.17647C18.8604 6.61525 19.0347 7.03605 19.3449 7.34632C19.6552 7.65658 20.076 7.83088 20.5148 7.83088H24.3751" stroke="#82868C" stroke-width="1.4" stroke-linecap="round" stroke-linejoin="round"/>
<path d="M10.0369 13.3457H19.9634" stroke="#82868C" stroke-width="1.4" stroke-linecap="round" stroke-linejoin="round"/>
<path d="M10.0369 16.6545H19.9634" stroke="#82868C" stroke-width="1.4" stroke-linecap="round" stroke-linejoin="round"/>
<path d="M10.0369 19.9634H19.9634" stroke="#82868C" stroke-width="1.4" stroke-linecap="round" stroke-linejoin="round"/>
<path d="M10.0369 23.2722H15.5516" stroke="#82868C" stroke-width="1.4" stroke-linecap="round" stroke-linejoin="round"/>
</svg>
