<svg width="50" height="50" viewBox="0 0 50 50" fill="none" xmlns="http://www.w3.org/2000/svg">
<circle cx="25" cy="25" r="25" fill="#8B5CF6" fill-opacity="0.22"/>
<path d="M25.4606 36.0856C19.6362 36.0856 14.875 31.3244 14.875 25.5C14.875 19.6756 19.6362 14.9144 25.4606 14.9144C31.285 14.9144 36.0463 19.6756 36.0463 25.5C36.0925 31.3244 31.3313 36.0856 25.4606 36.0856ZM25.4606 16.0238C20.2372 16.0238 16.0306 20.2765 16.0306 25.4538C16.0306 30.631 20.2834 34.8838 25.4606 34.8838C30.6379 34.8838 34.8906 30.631 34.8906 25.4538C34.8906 20.2765 30.6841 16.0238 25.4606 16.0238Z" fill="#8B5CF6"/>
<path d="M28.789 30.9084L24.8599 26.9792V19.8143H26.1079V26.4707L29.6673 30.0301L28.789 30.9084Z" fill="#8B5CF6"/>
</svg>
