<svg width="50" height="50" viewBox="0 0 50 50" fill="none" xmlns="http://www.w3.org/2000/svg">
<circle cx="25" cy="25" r="25" fill="#8B5CF6" fill-opacity="0.22"/>
<path d="M19.0258 18.617C19.6323 18.1968 20.0317 17.4823 20.0317 16.6709C20.0317 15.3775 19.0178 14.3295 17.766 14.3295C16.5143 14.3295 15.4999 15.3775 15.4999 16.6709C15.4999 17.4823 15.9001 18.1972 16.5062 18.617C14.934 19.0969 13.7998 20.418 13.7998 21.703C13.7998 23.3109 15.5761 23.1055 17.7664 23.1055C19.9574 23.1055 21.733 23.3113 21.733 21.703C21.7334 20.4176 20.5996 19.0965 19.0258 18.617ZM33.4926 18.617C34.0991 18.1968 34.4985 17.4823 34.4985 16.6709C34.4985 15.3775 33.4846 14.3295 32.2328 14.3295C30.9811 14.3295 29.9668 15.3779 29.9668 16.6709C29.9668 17.4823 30.3669 18.1972 30.973 18.617C29.4008 19.0969 28.2666 20.418 28.2666 21.703C28.2666 23.3109 30.043 23.1055 32.2332 23.1055C34.4242 23.1055 36.1998 23.3113 36.1998 21.703C36.1998 20.4176 35.066 19.0965 33.4926 18.617ZM26.3904 29.8899C27.0597 29.4259 27.5008 28.6374 27.5008 27.7412C27.5008 26.3138 26.3812 25.1561 24.9992 25.1561C23.6177 25.1561 22.4977 26.3138 22.4977 27.7412C22.4977 28.6374 22.9388 29.4263 23.6085 29.8899C21.872 30.4197 20.6202 31.878 20.6202 33.2968C20.6202 35.072 22.5808 34.8449 24.9996 34.8449C27.4185 34.8449 29.3786 35.072 29.3786 33.2968C29.379 31.8776 28.1269 30.4193 26.3904 29.8899Z" stroke="#8B5CF6" stroke-width="1.3" stroke-miterlimit="10"/>
<path d="M28.877 29.381L32.7539 25.2761" stroke="#8B5CF6" stroke-width="1.3" stroke-miterlimit="10"/>
<path d="M17.2461 25.2761L21.123 29.381" stroke="#8B5CF6" stroke-width="1.3" stroke-miterlimit="10"/>
<path d="M21.9844 18.8906H27.5844" stroke="#8B5CF6" stroke-width="1.3" stroke-miterlimit="10"/>
</svg>
