<svg width="28" height="28" viewBox="0 0 28 28" fill="none" xmlns="http://www.w3.org/2000/svg">
<circle cx="14" cy="14" r="14" fill="#FF6B93"/>
<mask id="mask0_1408_12204" style="mask-type:alpha" maskUnits="userSpaceOnUse" x="0" y="0" width="28" height="28">
<circle cx="14" cy="14" r="14" fill="#C4C4C4"/>
</mask>
<g mask="url(#mask0_1408_12204)">
<path d="M16.8682 26.959C16.8682 26.959 16.3257 28.6668 13.8343 28.6668C10.941 28.6668 10.2578 27.1197 10.2578 27.1197C10.519 26.4566 10.6798 25.8338 10.8003 25.2913C11.0213 24.2867 11.0414 23.4829 11.0414 23.0007L16.1248 22.7998C16.165 23.2217 16.2454 23.7442 16.3257 24.2465C16.5669 25.5927 16.8682 26.959 16.8682 26.959Z" fill="#FFB8A1"/>
<path d="M16.3257 24.2467C15.5421 24.7892 13.8142 25.613 10.8003 25.2915C11.0213 24.2869 11.0414 23.4832 11.0414 23.001L16.1248 22.8C16.165 23.222 16.2454 23.7243 16.3257 24.2467Z" fill="#283252"/>
<path d="M9.09216 16.3506C9.09216 16.3506 7.52494 14.2007 6.2993 15.4665C5.07366 16.7323 7.44457 21.1527 9.57438 20.1882L9.09216 16.3506Z" fill="#FFB8A1"/>
<path d="M8.32872 18.8823C8.26844 18.8823 8.22825 18.8421 8.22825 18.7818C8.02733 17.295 6.84187 16.3707 6.82178 16.3707C6.7816 16.3305 6.7615 16.2702 6.80169 16.21C6.84187 16.1698 6.90215 16.1497 6.96243 16.1899C7.02271 16.2301 8.22826 17.1744 8.44927 18.7416C8.44927 18.822 8.40909 18.8823 8.32872 18.8823C8.34881 18.8823 8.34881 18.8823 8.32872 18.8823Z" fill="#FF8A8A"/>
<path d="M8.00707 17.8172C7.96688 17.8172 7.94679 17.7972 7.9267 17.7771C7.76596 17.536 7.30383 17.5159 7.123 17.536C7.06272 17.536 7.00244 17.4958 7.00244 17.4355C7.00244 17.3752 7.04263 17.3149 7.1029 17.3149C7.123 17.3149 7.84633 17.2748 8.08744 17.6565C8.12762 17.6967 8.10753 17.7771 8.06734 17.8172C8.04725 17.8172 8.02716 17.8172 8.00707 17.8172Z" fill="#FF8A8A"/>
<path d="M18.6766 16.3506C18.6766 16.3506 20.2438 14.2007 21.4694 15.4665C22.6951 16.7323 20.3241 21.1527 18.1943 20.1882L18.6766 16.3506Z" fill="#FFB8A1"/>
<path d="M19.4401 18.8824C19.4401 18.8824 19.42 18.8824 19.4401 18.8824C19.3597 18.8824 19.3195 18.8222 19.3396 18.7619C19.5606 17.1746 20.7662 16.2503 20.8264 16.2101C20.8666 16.17 20.947 16.19 20.9872 16.2302C21.0274 16.2704 21.0073 16.3508 20.9671 16.391C20.947 16.391 19.7615 17.3152 19.5606 18.8021C19.5405 18.8423 19.4802 18.8824 19.4401 18.8824Z" fill="#FF8A8A"/>
<path d="M19.7615 17.8171C19.7414 17.8171 19.7213 17.8171 19.7012 17.797C19.661 17.7568 19.6409 17.6965 19.6811 17.6362C19.9423 17.2545 20.6455 17.2947 20.6656 17.2947C20.7259 17.2947 20.7661 17.355 20.7661 17.4152C20.7661 17.4755 20.7058 17.5157 20.6455 17.5157C20.4848 17.4956 20.0026 17.5358 19.8418 17.7568C19.8418 17.797 19.8016 17.8171 19.7615 17.8171Z" fill="#FF8A8A"/>
<path d="M15.2206 10.1014C10.8003 9.01645 6.82197 13.0149 7.8065 17.4352C8.50974 20.5495 10.0569 24.5078 13.8342 24.5881C17.7724 24.6886 19.3597 20.3888 19.9223 17.1338C20.4447 14.1601 18.6966 11.2266 15.8234 10.2823C15.6225 10.2019 15.4216 10.1416 15.2206 10.1014Z" fill="#FFB8A1"/>
<path d="M14.1559 20.1278C13.9751 20.1278 13.7541 20.0876 13.5331 19.9871C13.4728 19.9671 13.4326 19.8867 13.4326 19.8264L13.7541 17.4153C13.7742 17.3349 13.8345 17.2747 13.9349 17.2747C14.0153 17.2948 14.0756 17.355 14.0756 17.4555L13.7742 19.7661C14.0756 19.8867 14.3167 19.8666 14.5176 19.746C14.598 19.7058 14.6784 19.7259 14.7386 19.7862C14.7788 19.8666 14.7587 19.947 14.6984 20.0072C14.5176 20.0675 14.3569 20.1278 14.1559 20.1278Z" fill="#FF8A8A"/>
<path d="M13.8546 21.7148C12.9705 21.7148 12.2874 21.3532 12.2874 21.3331C12.207 21.2929 12.1869 21.1924 12.2271 21.1121C12.2673 21.0317 12.3678 21.0116 12.4481 21.0518C12.5285 21.092 14.2364 22.0162 15.7232 20.6499C15.7835 20.5897 15.884 20.5897 15.9442 20.6499C16.0045 20.7102 16.0045 20.8107 15.9442 20.871C15.241 21.534 14.4976 21.7148 13.8546 21.7148Z" fill="#FF8A8A"/>
<path d="M14.1157 22.6192C13.7742 22.6192 13.4728 22.5388 13.4728 22.5187C13.3924 22.4986 13.3522 22.3982 13.3723 22.3178C13.3924 22.2374 13.4929 22.1972 13.5732 22.2173C13.5732 22.2173 14.2765 22.4183 14.7587 22.1571C14.8391 22.1169 14.9194 22.137 14.9797 22.2173C15.0199 22.2977 14.9998 22.3781 14.9194 22.4384C14.6381 22.579 14.3568 22.6192 14.1157 22.6192Z" fill="#FF8A8A"/>
<path d="M10.8403 15.7075C11.1818 15.5266 11.6641 15.3056 12.1463 15.2453C12.4075 15.2052 12.5682 14.944 12.4678 14.7028L12.4477 14.6627C12.3874 14.4818 12.2066 14.3814 12.0257 14.4015C11.6038 14.4416 10.8604 14.6024 10.358 15.0846C10.2576 15.1851 10.2174 15.3458 10.2576 15.4865C10.338 15.7276 10.6193 15.828 10.8403 15.7075Z" fill="#283252"/>
<path d="M17.27 15.7075C16.9285 15.5266 16.4462 15.3056 15.964 15.2453C15.7028 15.2052 15.5421 14.944 15.6425 14.7028L15.6626 14.6627C15.7229 14.4818 15.9037 14.3814 16.0846 14.4015C16.5065 14.4416 17.2499 14.6024 17.7523 15.0846C17.8527 15.1851 17.8929 15.3458 17.8527 15.4865C17.7523 15.7276 17.4911 15.828 17.27 15.7075Z" fill="#283252"/>
<g opacity="0.5">
<g opacity="0.5">
<path opacity="0.5" d="M11.9655 18.5C11.9655 18.8818 11.2622 19.1832 10.3983 19.1832C9.53429 19.1832 8.83105 18.8818 8.83105 18.5C8.83105 18.1183 9.53429 17.8169 10.3983 17.8169C11.2622 17.8169 11.9655 18.1183 11.9655 18.5Z" fill="#FF8A8A"/>
</g>
</g>
<g opacity="0.5">
<g opacity="0.5">
<path opacity="0.5" d="M19.3595 18.5C19.3595 18.8818 18.6563 19.1832 17.7923 19.1832C16.9283 19.1832 16.2251 18.8818 16.2251 18.5C16.2251 18.1183 16.9283 17.8169 17.7923 17.8169C18.6563 17.8169 19.3595 18.1183 19.3595 18.5Z" fill="#FF8A8A"/>
</g>
</g>
<path d="M7.96722 18.1183C7.96722 18.1183 7.14343 13.5573 7.40463 12.5125C7.66583 11.4677 8.18824 11.6686 8.18824 11.6686C8.18824 11.6686 3.7277 7.99168 5.95797 5.92215C7.56537 4.41521 9.41388 7.63001 9.41388 7.63001C9.41388 7.63001 8.48963 4.47549 9.79564 4.05355C11.4231 3.51105 12.1465 7.28844 12.1465 7.28844C12.1465 7.28844 12.0058 4.47549 13.3319 4.51567C15.1603 4.59604 14.1356 6.70576 16.1047 7.52955C18.0938 8.35334 21.0876 8.77528 20.0026 12.0905C20.0026 12.0905 21.4493 12.0303 19.641 17.9576C19.1788 17.3146 18.9377 16.5109 18.9779 15.7273C18.998 15.1044 18.998 14.4012 18.8774 13.9591C18.8774 13.9591 17.7523 13.1755 17.7924 12.0102C17.7924 12.0102 13.794 14.3811 10.1171 12.2714C10.1171 12.2714 10.3582 13.6377 9.19286 13.8386C9.19286 13.8386 8.81111 14.7227 8.69055 15.9885C8.63027 16.7319 8.40926 17.4352 8.00741 18.058L7.96722 18.1183Z" fill="#283252"/>
<path d="M19.641 10.0211C19.641 10.0211 20.2639 7.87119 21.2886 8.41369C22.0119 8.81554 20.3242 10.443 20.3242 10.443C20.3242 10.443 21.7507 9.67952 22.454 10.222C23.1572 10.7645 21.2886 11.4075 20.2237 11.2266C19.1387 11.0257 19.641 10.0211 19.641 10.0211Z" fill="#283252"/>
<path d="M12.0861 16.8932C12.0861 17.3151 11.9455 17.6567 11.7446 17.6567C11.5436 17.6567 11.3829 17.3151 11.3628 16.8932C11.3628 16.4712 11.5034 16.1296 11.7044 16.1296C11.9053 16.1296 12.066 16.4712 12.0861 16.8932Z" fill="#283252"/>
<path d="M15.8433 16.8927C15.8433 17.3146 15.9839 17.6562 16.1848 17.6562C16.3858 17.6562 16.5465 17.3146 16.5666 16.8927C16.5666 16.4707 16.4259 16.1292 16.225 16.1292C16.0241 16.1292 15.8433 16.4707 15.8433 16.8927Z" fill="#283252"/>
</g>
</svg>
