<svg width="48" height="48" viewBox="0 0 48 48" fill="none" xmlns="http://www.w3.org/2000/svg">
<path d="M24.0004 8C11.7829 8 6.2787 17.5751 4.54004 21.4797C3.82324 23.0895 3.82324 24.9105 4.54004 26.5203C6.2787 30.4249 11.7829 40 24.0004 40C36.2183 40 41.722 30.4244 43.4604 26.5199C44.177 24.9103 44.177 23.0897 43.4604 21.4801C41.722 17.5756 36.2183 8 24.0004 8Z" fill="#BDE3FF"/>
<path d="M20 24C22.2091 24 24 22.2091 24 20C24 19.2807 23.8101 18.6057 23.4777 18.0224C23.6499 18.0076 23.824 18 24 18C27.3137 18 30 20.6863 30 24C30 27.3137 27.3137 30 24 30C20.6863 30 18 27.3137 18 24C18 23.824 18.0076 23.6499 18.0224 23.4777C18.6057 23.8101 19.2807 24 20 24Z" fill="#4E8AF4"/>
</svg>
