<svg width="531" height="418" viewBox="0 0 531 418" fill="none" xmlns="http://www.w3.org/2000/svg">
<rect width="531" height="418" fill="white"/>
<path fill-rule="evenodd" clip-rule="evenodd" d="M407.568 94.0505C412.016 88.7069 415.027 82.1583 414.524 74.8203C413.074 53.6777 384.318 58.3288 378.724 68.9998C373.131 79.6708 373.795 106.739 381.025 108.646C383.908 109.406 390.049 107.543 396.3 103.687L392.377 132.096H415.544L407.568 94.0505Z" fill="#B28B67"/>
<path fill-rule="evenodd" clip-rule="evenodd" d="M400.36 82.5674C401.118 82.0345 402.023 81.7108 402.995 81.7108C405.661 81.7108 407.821 84.1436 407.821 86.6506C407.821 89.2587 406.618 91.2752 404.9 92.1307C405.817 93.9673 406.74 95.3001 407.821 95.5422C411.993 95.1102 417.474 84.4974 417.474 75.7831C417.474 66.245 410.059 58 396.238 58C383.816 58 379.105 63.2423 378.863 67.8795C384.186 69.3769 393.488 69.9534 406.856 69.8554V70.8434L395.273 71.8313L393.342 77.759C396.414 77.5244 398.608 79.6806 400.36 82.5674Z" fill="#191847"/>
<path d="M425.197 386C384.147 386 350.869 353.489 350.869 313.386C350.869 273.282 384.147 240.771 425.197 240.771C466.246 240.771 499.524 273.282 499.524 313.386C499.524 353.489 466.246 386 425.197 386Z" fill="#C5CFD6"/>
<path fill-rule="evenodd" clip-rule="evenodd" d="M284.738 374.796C297.106 346.78 306.051 322.384 309.641 309.513C315.788 287.474 320.465 268.081 321.647 260.839C324.466 243.569 299.965 242.564 296.726 251.146C291.825 264.137 283.268 306.818 272.986 371.287L284.738 374.796ZM428.2 286.872C416.853 282.282 377.114 267.915 357.948 263.851C352.44 262.683 347.102 261.598 342.083 260.617C327.166 257.703 319.437 285.246 333.804 287.362C369.585 292.633 420.31 298.076 424.65 298.686C430.734 299.542 435.332 289.758 428.2 286.872Z" fill="#B28B67"/>
<path fill-rule="evenodd" clip-rule="evenodd" d="M332.927 253.038L394.307 221.058V214.096H387.008C327.625 229.583 297.281 239.508 295.975 243.871C295.961 243.918 295.948 243.965 295.936 244.012C295.906 244.052 295.877 244.093 295.848 244.133C284.08 260.698 277.032 341.569 274.718 347.624L297.269 351.067C305.895 318.329 333.494 295.522 332.761 256.311C332.959 255.16 333.009 254.07 332.927 253.038Z" fill="#1F28CF"/>
<path fill-rule="evenodd" clip-rule="evenodd" d="M389.208 272.03C394.824 270.88 399.996 269.853 404.421 269.058C433.006 263.927 441.342 248.266 436.414 214.096H383.745C375.142 216.626 330.43 235.816 307.232 246.023C291.878 252.779 296.718 277.132 305.413 283.47C305.46 283.859 305.617 284.123 305.895 284.241C352.668 304.082 389.669 293.671 402.03 296.998L407.747 278.539L389.208 272.03Z" fill="#2B44FF"/>
<path fill-rule="evenodd" clip-rule="evenodd" d="M424.32 283.938C427.385 284.238 429.56 284.709 430.847 285.352C432.411 286.133 434.567 287.539 437.314 289.571C436.429 291.428 428.474 308.123 413.448 339.654C408.624 338.857 406.712 336.972 407.713 334.001C408.714 331.03 409.521 328.549 410.135 326.56L411.089 298.22C411.107 297.675 411.554 297.248 412.087 297.267C412.096 297.267 412.105 297.268 412.114 297.268L416.373 297.542C418.794 295.537 420.391 293.723 421.164 292.1C421.793 290.782 422.14 288.701 422.207 285.858L422.207 285.858C422.232 284.767 423.117 283.904 424.183 283.93C424.229 283.931 424.275 283.934 424.32 283.938Z" fill="#E4E4E4"/>
<path fill-rule="evenodd" clip-rule="evenodd" d="M290.367 369.602C291.447 372.552 291.987 374.76 291.987 376.225C291.987 378.006 291.697 380.606 291.117 384.024C289.098 384.024 270.95 384.024 236.673 384.024C235.258 379.237 236.075 376.653 239.123 376.271C242.171 375.889 244.703 375.545 246.72 375.237L272.025 363.691C272.512 363.469 273.082 363.693 273.299 364.191C273.303 364.2 273.307 364.208 273.31 364.217L274.937 368.255C277.759 369.603 280.052 370.276 281.816 370.276C283.249 370.276 285.229 369.684 287.755 368.499L287.755 368.499C288.724 368.044 289.87 368.48 290.314 369.472C290.333 369.514 290.351 369.558 290.367 369.602Z" fill="#E4E4E4"/>
<path fill-rule="evenodd" clip-rule="evenodd" d="M336.497 194.467L305.706 217.609C297.354 219.915 290.377 222.784 284.774 226.217C283.451 227.451 281.851 229.951 287.34 229.519C292.829 229.087 298.622 228.885 299.379 230.802C300.137 232.718 296.815 235.009 298.346 237.595C299.367 239.318 304.189 234.996 312.812 224.629L343.303 211.688L336.497 194.467ZM475.836 184.828L458.836 187.979C478.567 228.051 489.135 249.239 490.54 251.542C493.7 256.724 490.51 266.062 489.306 270.987C496.3 272.787 493.715 261.915 502.565 264.333C510.642 266.541 517.43 271.956 525.116 264.953C526.061 264.092 526.789 261.361 523.642 259.898C515.802 256.251 504.243 249.479 502.393 246.897C499.872 243.376 491.02 222.687 475.836 184.828Z" fill="#B28B67"/>
<path fill-rule="evenodd" clip-rule="evenodd" d="M329.324 196.983C325.362 196.692 321.053 197.364 316.433 198.957C314.159 199.741 312.937 202.263 313.703 204.589C314.148 205.941 315.166 206.929 316.386 207.367C315.502 208.027 314.61 208.683 313.71 209.336L321.478 225.566C354.166 208.886 384.889 196.309 398.889 168.771C403.587 159.528 401.997 128.133 402.446 116.712L392.122 112.378C377.731 142.824 358.255 172.033 329.324 196.983Z" fill="#69A1AC"/>
<path fill-rule="evenodd" clip-rule="evenodd" d="M438.711 222.899C408.364 226.311 384.477 226.311 367.051 222.899C364.892 222.476 364.987 212.951 365.988 210.349C381.58 169.838 391.836 140.182 391.836 112.044C394.697 113.573 399.703 113.802 406.856 112.731C426.079 141.729 434.915 175 438.711 222.899Z" fill="#191847"/>
<path fill-rule="evenodd" clip-rule="evenodd" d="M444.349 227.688C445.38 226.696 445.917 225.208 445.653 223.675L445.15 220.757C444.809 218.779 443.24 217.338 441.387 217.113C441.063 215.631 440.783 214.158 440.553 212.697C438.604 200.351 441.933 188.246 441.777 176.359C457.299 189.913 471.223 213.317 483.55 246.571L501.781 241.081C501.086 238.436 500.365 235.823 499.62 233.243C501.724 232.02 504.183 226.412 502.413 225.474C500.586 224.505 498.65 223.823 496.611 223.421C479.894 171.89 452.558 134.204 414.602 110.361H411.244L403.624 110.361C406.856 154.109 362.212 249.618 377.713 331.187C406.366 337.735 447.271 317.36 487.088 333.639C485.607 300.79 455.928 262.201 444.349 227.688V227.688Z" fill="#89C5CC"/>
<path fill-rule="evenodd" clip-rule="evenodd" d="M410.615 111.349L415.595 127.024L405.566 138.774L414.63 148.008L392.703 186.434L419.517 148.085L410.615 138.774L419.517 128.39L410.615 111.349Z" fill="black" fill-opacity="0.1"/>
<path fill-rule="evenodd" clip-rule="evenodd" d="M399.134 201.253C401.266 201.253 402.995 199.484 402.995 197.301C402.995 195.119 401.266 193.349 399.134 193.349C397.001 193.349 395.273 195.119 395.273 197.301C395.273 199.484 397.001 201.253 399.134 201.253ZM394.307 223.976C396.44 223.976 398.168 222.207 398.168 220.024C398.168 217.842 396.44 216.072 394.307 216.072C392.175 216.072 390.446 217.842 390.446 220.024C390.446 222.207 392.175 223.976 394.307 223.976ZM393.342 246.699C395.474 246.699 397.203 244.93 397.203 242.747C397.203 240.564 395.474 238.795 393.342 238.795C391.21 238.795 389.481 240.564 389.481 242.747C389.481 244.93 391.21 246.699 393.342 246.699Z" fill="black" fill-opacity="0.4"/>
<path fill-rule="evenodd" clip-rule="evenodd" d="M106.224 99.8469C101.909 94.6142 98.9888 88.2014 99.4768 81.0157C100.883 60.3117 128.78 64.8663 134.206 75.316C139.633 85.7656 138.988 112.272 131.975 114.139C129.178 114.884 123.22 113.06 117.155 109.284L120.962 137.104H98.4872L106.224 99.8469Z" fill="#B28B67"/>
<path fill-rule="evenodd" clip-rule="evenodd" d="M89.6785 74.1238C88.9526 73.3807 88.5566 72.3199 88.2141 71.3126C87.8584 70.2663 87.5127 69.2092 87.2766 68.1201C86.8047 65.9441 86.8002 63.4416 88.3028 61.7519C89.5078 60.397 91.3159 59.7892 92.9847 59.6572C94.0965 59.5691 95.2384 59.7299 96.3041 60.0919C97.3615 60.451 98.273 61.1666 99.2981 61.6108C99.3372 59.2658 99.726 56.8122 100.878 54.8099C101.986 52.8834 103.752 51.8023 105.764 51.5163C107.829 51.2228 109.869 51.722 111.717 52.7549C112.18 53.0136 112.639 53.2846 113.078 53.5913C113.445 53.8481 113.827 54.1574 114.258 54.2619C114.739 54.3784 114.977 54.0917 115.289 53.7294C115.656 53.3047 116.068 52.9306 116.505 52.5989C118.435 51.1328 120.969 50.53 123.205 51.4088C124.236 51.8137 125.238 52.5013 125.937 53.4489C126.561 54.2935 127.005 55.6334 127.865 56.2219C128.23 56.4717 128.488 56.1407 128.821 55.8961C129.32 55.5286 129.796 55.123 130.301 54.7654C131.011 54.2631 131.779 53.8874 132.602 53.6907C133.807 53.4028 135.471 53.4703 135.816 55.1003C135.945 55.7125 135.846 56.3673 135.804 56.9842C135.747 57.8313 135.687 58.678 135.616 59.5238C135.562 60.166 135.494 60.7863 135.376 61.4169C135.314 61.7531 135.118 62.3798 135.257 62.7164C135.432 63.1372 136.236 62.898 136.58 62.9126C137.259 62.9416 137.941 63.0646 138.569 63.3644C139.056 63.5968 139.568 63.9386 139.773 64.5148C139.899 64.8688 139.866 65.2324 139.806 65.5966C139.735 66.0336 139.817 66.2654 139.87 66.7064C140.782 66.2424 143.943 65.2115 144.34 66.9002C144.473 67.4625 144.171 68.0979 143.941 68.5721C143.538 69.4038 143.009 70.1641 142.468 70.8891C141.34 72.4015 139.993 73.706 138.545 74.8217C140.242 75.6013 140.685 77.9011 139.215 79.2713C138.567 79.8762 137.694 80.0109 136.875 79.9722C136.576 79.958 136.144 79.839 135.908 79.8929C135.781 79.9219 135.645 80.033 135.47 80.0454C134.314 80.1272 133.01 79.8396 131.881 79.5748C129.869 79.1029 127.964 78.118 126.408 76.6179C126.009 76.2331 125.679 76.0116 125.142 76.0173C124.672 76.0222 124.21 76.1556 123.74 76.1679C122.495 76.2007 121.373 75.5723 120.218 75.154C120.147 76.7666 119.703 78.5426 119.064 79.9934C118.544 81.1764 117.456 81.3483 116.388 81.4521C112.971 81.7842 109.542 81.4136 106.121 81.4185C109.433 82.1918 112.855 82.5105 116.137 83.4206C117.621 83.8318 116.488 84.8649 115.854 85.581C114.809 86.7603 114.032 88.2214 113.494 89.7607C111.874 87.5791 109.01 86.1417 106.473 86.8119C103.671 87.5523 101.697 91.4683 103.489 94.2837C104.53 95.918 106.409 96.5489 107.973 97.2511C106.753 98.5613 106.458 100.496 105.724 102.126C105.361 102.93 104.853 103.839 104.043 104.119C103.744 104.223 103.392 104.232 103.156 104.484C102.863 104.796 102.794 105.146 102.42 105.414C100.928 106.486 98.5972 106.403 97.2747 105.005C96.0788 103.74 96.39 101.739 97.3888 100.456C95.7989 99.7717 92.9023 98.8911 93.5342 96.3321C90.0891 96.0958 81.7245 90.3234 86.3484 86.1054C83.8108 84.6237 81.4795 81.0027 83.1094 77.8108C84.3646 75.3529 87.2835 74.2542 89.6785 74.1238Z" fill="#191847"/>
<path fill-rule="evenodd" clip-rule="evenodd" d="M57.867 258.036H130.211L139.691 378H32L57.867 258.036Z" fill="#C5CFD6"/>
<path fill-rule="evenodd" clip-rule="evenodd" d="M57.867 258.036H80.1169L93.434 378H32L57.867 258.036Z" fill="black" fill-opacity="0.1"/>
<path fill-rule="evenodd" clip-rule="evenodd" d="M212.689 237.483C220.403 232.698 233.344 238.846 233.335 245.689C233.308 266.165 215.221 362.667 214.277 368.767C213.332 374.868 203.216 376.479 202.627 368.787C201.689 356.548 199.948 314.18 201.69 294.569C202.409 286.474 203.184 278.765 203.947 271.887C194.456 289.594 179.777 314.947 159.911 347.945L149.127 342.854C157.596 314.028 164.54 293.677 169.96 281.802C179.24 261.47 187.941 244.057 191.603 237.924C197.364 228.276 207.391 231.643 212.689 237.483Z" fill="#B28B67"/>
<path fill-rule="evenodd" clip-rule="evenodd" d="M149.898 326.846L186.913 236.255C195.78 221.519 220.642 239.254 217.618 247.801C210.753 267.206 175.837 330.028 173.792 335.809L149.898 326.846Z" fill="#1F28CF"/>
<path fill-rule="evenodd" clip-rule="evenodd" d="M147.842 337.142C145.536 339.103 144.036 340.704 143.342 341.947C142.498 343.457 141.509 345.808 140.377 348.997C142.073 350.009 157.32 359.103 186.118 376.28C189.575 372.929 190.114 370.328 187.734 368.477C185.354 366.626 183.39 365.064 181.841 363.793L166.054 341.321C165.75 340.888 165.164 340.792 164.746 341.106C164.738 341.111 164.731 341.117 164.724 341.122L161.444 343.732C158.434 343.461 156.189 342.883 154.706 341.999C153.502 341.281 152.12 339.786 150.56 337.515L150.56 337.515C149.961 336.644 148.792 336.439 147.948 337.058C147.912 337.084 147.876 337.112 147.842 337.142Z" fill="#E4E4E4"/>
<path fill-rule="evenodd" clip-rule="evenodd" d="M200.258 363.877C199.21 366.766 198.686 368.928 198.686 370.363C198.686 372.107 198.968 374.653 199.53 378C201.489 378 219.095 378 252.347 378C253.72 373.312 252.928 370.781 249.97 370.408C247.013 370.034 244.557 369.696 242.601 369.395L218.052 358.089C217.58 357.871 217.026 358.09 216.815 358.578C216.812 358.587 216.808 358.595 216.805 358.604L215.227 362.558C212.489 363.878 210.265 364.537 208.553 364.537C207.163 364.537 205.242 363.957 202.792 362.797L202.792 362.797C201.852 362.352 200.74 362.778 200.309 363.749C200.291 363.791 200.274 363.834 200.258 363.877Z" fill="#E4E4E4"/>
<path fill-rule="evenodd" clip-rule="evenodd" d="M235.929 252.65C235.929 278.352 224.114 338.306 224.107 343.965L198.686 343.985C202.407 290.489 203.727 263.453 202.644 262.877C201.021 262.012 136.11 269.572 116.641 269.572C88.5683 269.572 76.955 251.283 76.0127 217.402H131.624C142.948 218.654 202.01 230.962 223.944 235.192C233.335 237.004 235.929 245.569 235.929 252.65Z" fill="#2B44FF"/>
<path fill-rule="evenodd" clip-rule="evenodd" d="M140.288 157.13L172.792 138.738C178.197 132.107 183.522 126.957 188.768 123.288C190.372 122.597 193.175 122.178 190.553 126.985C187.932 131.793 185.383 136.971 186.719 138.452C188.055 139.933 191.385 137.864 192.978 140.325C194.041 141.965 188.351 144.556 175.909 148.099L152.291 170.44L140.288 157.13ZM191.195 172.648L205.472 164.545C207.476 156.669 209.87 152.707 212.657 152.658C214.797 151.629 211.069 161.58 215.127 160.717C219.184 159.854 229.087 152.245 230.794 153.79C233.318 156.075 231.067 163.094 228.415 166.585C223.458 173.11 219.354 175.341 209.21 178.263C203.907 179.791 198.173 182.853 192.008 187.45L191.195 172.648Z" fill="#997659"/>
<path fill-rule="evenodd" clip-rule="evenodd" d="M124.459 153.033C135.843 152.909 151.025 150.425 167.224 139.802L173.586 154.458C162.412 165.915 146.701 175.327 132.963 174.929C122.137 174.615 116.604 161.086 124.459 153.033Z" fill="#2026A2"/>
<path fill-rule="evenodd" clip-rule="evenodd" d="M139.788 176.538C151.875 179.652 172.143 175.98 200.593 165.521C207.65 180.604 210.912 191.357 210.379 197.78C185.974 210.95 165.056 216.823 147.822 217.21C148.37 227.775 147.125 237.827 142.944 247.012C134.348 265.895 84.0146 248.408 67.091 251.85C56.4929 216.291 76.9846 201.84 77.0011 179.088C77.0192 154.172 96.3844 115.82 99.2336 115.82H125.217C126.65 134.848 133.866 155.82 139.788 176.538Z" fill="#1F28CF"/>
</svg>
