<svg width="132" height="135" viewBox="0 0 132 135" fill="none" xmlns="http://www.w3.org/2000/svg">
<path fill-rule="evenodd" clip-rule="evenodd" d="M32.6667 93.1667C32.6667 81.6607 41.9941 72.3333 53.5 72.3333H78.5C90.006 72.3333 99.3333 81.6607 99.3333 93.1667C99.3333 100.07 93.7369 105.667 86.8333 105.667H45.1667C38.2631 105.667 32.6667 100.07 32.6667 93.1667Z" fill="#4E8AF4"/>
<path d="M66 22.3333C54.4941 22.3333 45.1667 31.6607 45.1667 43.1666C45.1667 54.6726 54.4941 64 66 64C77.506 64 86.8334 54.6726 86.8334 43.1666C86.8334 31.6607 77.506 22.3333 66 22.3333Z" fill="#4E8AF4"/>
<path d="M72.25 90.5833C72.25 85.9162 72.25 83.5827 73.1583 81.8001C73.9572 80.2321 75.2321 78.9572 76.8001 78.1583C78.5827 77.25 80.9162 77.25 85.5833 77.25H96.4167C101.084 77.25 103.417 77.25 105.2 78.1583C106.768 78.9572 108.043 80.2321 108.842 81.8001C109.75 83.5827 109.75 85.9162 109.75 90.5833V101.417C109.75 106.084 109.75 108.417 108.842 110.2C108.043 111.768 106.768 113.043 105.2 113.842C103.417 114.75 101.084 114.75 96.4167 114.75H85.5833C80.9162 114.75 78.5827 114.75 76.8001 113.842C75.2321 113.043 73.9572 111.768 73.1583 110.2C72.25 108.417 72.25 106.084 72.25 101.417V90.5833Z" fill="#BDE3FF"/>
<path fill-rule="evenodd" clip-rule="evenodd" d="M91 85.5833C92.1506 85.5833 93.0833 86.5161 93.0833 87.6666V93.9166H99.3333C100.484 93.9166 101.417 94.8494 101.417 96C101.417 97.1506 100.484 98.0833 99.3333 98.0833H93.0833V104.333C93.0833 105.484 92.1506 106.417 91 106.417C89.8494 106.417 88.9166 105.484 88.9166 104.333V98.0833H82.6666C81.5161 98.0833 80.5833 97.1506 80.5833 96C80.5833 94.8494 81.5161 93.9166 82.6666 93.9166H88.9166V87.6666C88.9166 86.5161 89.8494 85.5833 91 85.5833Z" fill="#4E8AF4"/>
</svg>
