<svg width="41" height="41" viewBox="0 0 41 41" fill="none" xmlns="http://www.w3.org/2000/svg">
<circle cx="20.5" cy="20.5" r="20.5" fill="#E1F5FF"/>
<path fill-rule="evenodd" clip-rule="evenodd" d="M24.6002 17.0834C24.6002 19.3478 22.7645 21.1834 20.5002 21.1834C18.2358 21.1834 16.4002 19.3478 16.4002 17.0834C16.4002 14.819 18.2358 12.9834 20.5002 12.9834C22.7645 12.9834 24.6002 14.819 24.6002 17.0834ZM23.2335 17.0834C23.2335 18.593 22.0097 19.8167 20.5002 19.8167C18.9906 19.8167 17.7668 18.593 17.7668 17.0834C17.7668 15.5738 18.9906 14.3501 20.5002 14.3501C22.0097 14.3501 23.2335 15.5738 23.2335 17.0834Z" fill="#599BF9"/>
<path fill-rule="evenodd" clip-rule="evenodd" d="M20.5002 21.8667C18.4945 21.8667 17.0484 22.2828 16.0111 22.9066C14.9696 23.5329 14.3846 24.3421 14.0616 25.0498C13.7893 25.6463 13.9132 26.2542 14.275 26.6874C14.6199 27.1002 15.1561 27.3334 15.7169 27.3334H25.2835C25.8443 27.3334 26.3805 27.1002 26.7253 26.6874C27.0871 26.2543 27.211 25.6463 26.9388 25.0498C26.6157 24.3421 26.0308 23.5329 24.9893 22.9066C23.952 22.2828 22.5059 21.8667 20.5002 21.8667ZM15.3049 25.6173C15.5291 25.126 15.941 24.5435 16.7154 24.0778C17.4939 23.6096 18.6827 23.2334 20.5002 23.2334C22.3177 23.2334 23.5065 23.6096 24.285 24.0778C25.0594 24.5435 25.4712 25.126 25.6955 25.6173C25.722 25.6753 25.7208 25.7102 25.7181 25.728C25.7151 25.7483 25.7051 25.7769 25.6764 25.8112C25.6148 25.885 25.4775 25.9667 25.2835 25.9667H15.7169C15.5228 25.9667 15.3855 25.885 15.3239 25.8112C15.2952 25.7769 15.2852 25.7483 15.2822 25.728C15.2795 25.7102 15.2784 25.6753 15.3049 25.6173Z" fill="#599BF9"/>
</svg>
