<svg width="48" height="48" viewBox="0 0 48 48" fill="none" xmlns="http://www.w3.org/2000/svg">
<path fill-rule="evenodd" clip-rule="evenodd" d="M12 12C10.8954 12 10 12.8954 10 14C10 15.1046 10.8954 16 12 16H20C21.1046 16 22 16.8954 22 18V30C22 31.1046 21.1046 32 20 32H12C10.8954 32 10 32.8954 10 34C10 35.1046 10.8954 36 12 36H20C23.3137 36 26 33.3137 26 30V26H34C35.1046 26 36 25.1046 36 24C36 22.8954 35.1046 22 34 22H26V18C26 14.6863 23.3137 12 20 12H12Z" fill="#BDE3FF"/>
<path fill-rule="evenodd" clip-rule="evenodd" d="M16 14C16 17.3137 13.3137 20 10 20C6.68629 20 4 17.3137 4 14C4 10.6863 6.68629 8 10 8C13.3137 8 16 10.6863 16 14ZM44 24C44 27.3137 41.3137 30 38 30C34.6863 30 32 27.3137 32 24C32 20.6863 34.6863 18 38 18C41.3137 18 44 20.6863 44 24ZM10 40C13.3137 40 16 37.3137 16 34C16 30.6863 13.3137 28 10 28C6.68629 28 4 30.6863 4 34C4 37.3137 6.68629 40 10 40Z" fill="#4E8AF4"/>
</svg>
