<svg width="100" height="100" viewBox="0 0 100 100" fill="none" xmlns="http://www.w3.org/2000/svg">
<path d="M50 8.33331C26.9881 8.33331 8.33331 26.9881 8.33331 50C8.33331 73.0118 26.9881 91.6667 50 91.6667C73.0118 91.6667 91.6667 73.0118 91.6667 50C91.6667 26.9881 73.0118 8.33331 50 8.33331Z" fill="#BDE3FF"/>
<path fill-rule="evenodd" clip-rule="evenodd" d="M65.4463 38.7204C67.0734 40.3476 67.0734 42.9858 65.4463 44.6129L48.7796 61.2796C47.1524 62.9068 44.5142 62.9068 42.887 61.2796L34.5537 52.9463C32.9265 51.3191 32.9265 48.6809 34.5537 47.0537C36.1809 45.4265 38.8191 45.4265 40.4463 47.0537L45.8333 52.4408L59.5537 38.7204C61.1809 37.0932 63.8191 37.0932 65.4463 38.7204Z" fill="#4E8AF4"/>
</svg>
