<svg width="31" height="31" viewBox="0 0 31 31" fill="none" xmlns="http://www.w3.org/2000/svg">
<path d="M25.1097 10.0093C25.105 10.0023 25.1 9.99582 25.0948 9.98982C25.1093 9.97382 25.1215 9.95685 25.1323 9.9407C25.143 9.92466 25.1528 9.9088 25.1626 9.89298C25.1911 9.84712 25.2193 9.80162 25.268 9.75307L25.2685 9.75362L25.275 9.74496C26.5877 7.99488 27.1769 6.23643 27.0297 4.61797L27.0298 4.61796L27.0292 4.61415C26.8808 3.57601 26.2878 2.69036 25.4082 1.957L25.4082 1.95699L25.407 1.95605C23.9307 0.774839 21.7182 0.774175 20.2406 1.95402C19.3531 2.54717 18.764 3.58075 18.6161 4.61276C18.3212 6.23616 18.9138 7.99744 20.3725 9.74796L20.3722 9.74816L20.377 9.75299C20.5298 9.90573 20.7236 10.0235 20.9226 10.0633C21.1242 10.1036 21.3322 10.0633 21.4979 9.89767C21.6509 9.74492 21.7689 9.55105 21.8087 9.35207C21.8487 9.1524 21.8095 8.9464 21.6478 8.78152C20.6376 7.33682 20.0744 6.05476 20.2139 4.92654C20.3567 4.21572 20.6396 3.6553 21.1997 3.23454L21.1998 3.23461L21.2027 3.2322C22.0435 2.53203 23.4547 2.52755 24.4456 3.23508C25.0057 3.65577 25.2885 4.21601 25.4312 4.92651C25.5705 6.05359 25.0091 7.33313 24.0016 8.77529C23.556 9.07662 23.255 9.5306 23.255 10.1348V10.147L23.2588 10.1586C23.4084 10.6068 23.7074 11.0564 24.1581 11.3572L24.177 11.3698H24.1997C24.2393 11.3698 24.2563 11.3849 24.2918 11.4204L24.2937 11.4223C24.3292 11.4578 24.3815 11.5102 24.4769 11.5146C26.2085 12.0924 27.4875 12.6651 28.1969 13.511C28.3426 13.8021 28.4753 14.0731 28.4753 14.3398C28.4753 14.4738 28.4414 14.6447 28.3729 14.7986C28.304 14.9535 28.2049 15.0809 28.0815 15.1424L28.0814 15.1425C27.7931 15.2868 27.5078 15.4294 27.0808 15.5718C26.356 15.7173 25.6397 15.8596 24.9253 15.8596H21.8803C21.6458 15.8596 21.4445 15.9382 21.3016 16.0811C21.1587 16.2239 21.0802 16.4252 21.0802 16.6597C21.0802 16.8942 21.1586 17.0955 21.3014 17.2384C21.4442 17.3813 21.6455 17.4598 21.8803 17.4598H24.9253C25.3633 17.4598 25.8008 17.4233 26.2348 17.3871L26.2364 17.387C26.6719 17.3507 27.1037 17.3147 27.535 17.3147H27.5442L27.5531 17.3125C28.1465 17.1645 28.5914 16.8676 29.0248 16.5783L29.0268 16.577L29.0268 16.5771L29.0301 16.5746C29.3546 16.3313 29.6179 16.0158 29.7993 15.6531C29.9806 15.2904 30.075 14.8904 30.075 14.4849C30.075 13.7435 29.7799 12.9996 29.33 12.5484C28.4551 11.5287 27.0082 10.6597 25.1387 10.0776C25.1329 10.0522 25.123 10.0294 25.1097 10.0093ZM6.84504 11.066L6.84743 11.0637L6.85307 11.06C7.27593 10.7786 7.73947 10.4701 7.74544 9.85705C7.82197 9.61232 7.73657 9.37443 7.60854 9.15492C7.54303 9.0426 7.46402 8.93117 7.38458 8.82223C7.36843 8.80008 7.35229 8.77806 7.33621 8.75613C7.2725 8.66924 7.20994 8.58392 7.15292 8.49839L7.15293 8.49838L7.15195 8.49698C6.13816 7.04897 5.57335 5.76476 5.71474 4.63455L5.71532 4.63462V4.62524C5.71532 4.08122 6.12626 3.52093 6.69947 3.09046C7.68838 2.38513 8.95768 2.38515 9.9461 3.09045C10.5161 3.51853 10.9303 4.07873 10.9303 4.77035H10.9295L10.931 4.78097C11.0721 5.76754 10.6499 7.19605 9.4995 8.63511C9.33636 8.80028 9.29678 9.00704 9.3369 9.20748C9.37673 9.40652 9.49467 9.6005 9.64763 9.75346L9.65622 9.76205L9.66708 9.76749C9.97873 9.92357 10.4504 9.92649 10.7685 9.60835L10.7691 9.60888L10.7755 9.60032C12.0882 7.85025 12.6774 6.09179 12.5301 4.47333L12.5302 4.47332L12.5297 4.46951C12.3813 3.43138 11.7883 2.54572 10.9087 1.81237L10.9087 1.81235L10.9075 1.8114C9.43074 0.63021 7.21871 0.629533 5.74113 1.80937C4.85331 2.40239 4.2643 3.43566 4.11665 4.46747C3.82205 5.94472 4.55679 7.84318 6.00109 9.58313C6.00905 9.66721 6.05001 9.74345 6.08489 9.79571C6.1051 9.82599 6.1252 9.85105 6.14027 9.86859C6.14081 9.86922 6.14134 9.86984 6.14187 9.87045C6.13987 9.87806 6.13716 9.88327 6.13475 9.88688C6.12993 9.89411 6.12297 9.89986 6.11373 9.90448C6.10419 9.90925 6.09375 9.91201 6.08506 9.91346C6.08089 9.91415 6.07758 9.91447 6.07561 9.91461L6.07395 9.91471H6.06344L6.05266 9.91802C4.16234 10.4996 2.69931 11.2293 1.67206 12.2566L1.67152 12.2561L1.66509 12.2646C1.2253 12.8512 0.925 13.4468 0.925 14.1947C0.925 14.5712 1.0376 14.9815 1.22284 15.3521C1.40809 15.7227 1.66864 16.059 1.96986 16.2849L1.96979 16.285L1.97326 16.2873L1.97936 16.2913C2.41022 16.5784 2.85245 16.8731 3.44192 17.0215C4.17711 17.3144 5.05521 17.4598 6.07471 17.4598H9.08871L9.08919 17.4603H9.12021C9.35471 17.4603 9.556 17.3817 9.69886 17.2389C9.84172 17.096 9.9203 16.8947 9.9203 16.6602C9.9203 16.4257 9.84187 16.2244 9.69905 16.0816C9.55624 15.9387 9.35493 15.8601 9.12021 15.8601H6.07519C5.35956 15.8601 4.64647 15.7171 4.07906 15.4332L4.0794 15.4325L4.06916 15.4291C3.64493 15.288 3.36052 15.1462 3.07421 15.0035L3.06376 14.9983C2.80812 14.8703 2.6703 14.6129 2.6703 14.1952C2.6703 13.9299 2.80198 13.6604 2.94716 13.3699C3.80251 12.5178 4.94368 11.945 6.52742 11.2246C6.61599 11.2195 6.69679 11.1764 6.7514 11.14C6.78168 11.1198 6.80675 11.0997 6.82429 11.0846C6.83309 11.077 6.84011 11.0706 6.84504 11.066ZM6.07384 9.91471C6.07376 9.91471 6.07378 9.91471 6.07392 9.91471L6.07384 9.91471Z" fill="#82868C" stroke="#82868C" stroke-width="0.15"/>
<path d="M18.1666 20.1663C18.1239 20.1406 18.0851 20.1189 18.0557 20.1029C18.0621 20.0894 18.0711 20.0724 18.0834 20.0518C18.1336 19.9683 18.2378 19.8283 18.4527 19.6134L18.4532 19.6139L18.4597 19.6054C20.2047 17.2781 21.0878 14.9386 20.794 12.8804C20.6464 11.552 19.9083 10.3754 18.7349 9.49464L18.7349 9.49462C17.8494 8.83069 16.6726 8.50117 15.4816 8.50117C14.2904 8.50117 13.0787 8.83074 12.1218 9.49295L12.1218 9.49291L12.1195 9.49464C10.9415 10.3789 10.3546 11.5562 10.0616 12.8736L10.0614 12.8735L10.0606 12.8793C9.76656 14.9392 10.6507 17.1351 12.5403 19.6055L12.5397 19.6059L12.5468 19.6129L12.9287 19.9952L12.5593 20.3645C9.95366 21.2344 8.05918 22.2534 6.88861 23.5704L6.88854 23.5703L6.88612 23.5734C6.29732 24.309 5.99946 25.0502 5.99946 25.9402C5.99946 26.9679 6.43855 28.0119 7.33512 28.4668C7.78067 28.9081 8.36961 29.2004 9.09079 29.4893C10.1192 29.9296 11.2904 30.075 12.5998 30.075H18.5448C19.711 30.075 20.8771 29.9296 22.0429 29.6379L22.043 29.6386L22.0525 29.6348C22.7776 29.3446 23.3688 29.0509 23.8147 28.6063C24.5584 28.0094 25 26.9725 25 25.9402C25 25.0558 24.7056 24.166 24.1094 23.5688C22.9387 22.2525 21.0445 21.234 18.4397 20.3644C18.3613 20.2896 18.2532 20.2183 18.1666 20.1663ZM13.3249 21.5901L13.378 21.6431L13.378 21.6431C13.447 21.574 13.5214 21.5034 13.5974 21.4313C13.7538 21.283 13.9167 21.1285 14.0525 20.968C14.2547 20.7291 14.4123 20.4606 14.4148 20.1474C14.5634 19.3876 14.103 18.9273 13.6757 18.5L13.6721 18.4964C12.2295 16.4747 11.5177 14.6104 11.659 13.0437C11.8021 12.0459 12.228 11.1988 13.0748 10.6333C13.7903 10.2046 14.6463 9.91985 15.4997 9.91985C16.3519 9.91985 17.2064 10.2037 17.9212 10.6317C18.7753 11.3445 19.1983 12.0525 19.3405 13.0437C19.4819 14.6118 18.7692 16.621 17.3283 18.4955C17.1095 18.7147 16.8889 18.972 16.7223 19.2494C16.5551 19.5279 16.4396 19.8314 16.4396 20.1399C16.4396 20.4561 16.5979 20.7269 16.8017 20.9678C16.9382 21.1291 17.1021 21.2844 17.2593 21.4334C17.3346 21.5047 17.4084 21.5747 17.4769 21.6431L17.4989 21.6651H17.5299C17.5692 21.6651 17.586 21.68 17.6216 21.7156L17.6234 21.7174C17.6589 21.7529 17.7111 21.8052 17.8064 21.8098C20.2643 22.678 21.9837 23.5422 22.9831 24.6845L22.9896 24.692L22.9979 24.6975C23.4021 24.9669 23.545 25.5147 23.545 25.9402C23.545 26.4983 23.2647 27.0533 22.8533 27.3275L22.8532 27.3275C22.4175 27.6183 21.9927 27.9011 21.4265 28.0422L21.4265 28.042L21.4209 28.0438C20.5601 28.3311 19.553 28.4753 18.5448 28.4753H12.5998C11.5911 28.4753 10.5845 28.3311 9.72368 28.0438L9.72375 28.0436L9.71807 28.0422C9.14522 27.8994 8.57999 27.614 8.30278 27.3368L8.29752 27.3316L8.29133 27.3275C7.87989 27.0533 7.59965 26.4983 7.59965 25.9402C7.59965 25.5218 7.73868 24.9624 7.87665 24.6794C9.0245 23.5344 10.604 22.5299 13.0463 21.8099C13.1369 21.8064 13.2201 21.7622 13.2758 21.725C13.3061 21.7048 13.3312 21.6847 13.3488 21.6697C13.3576 21.6621 13.3647 21.6557 13.3696 21.6511L13.3754 21.6456L13.3771 21.6439L13.3777 21.6434L13.3778 21.6432L13.3779 21.6432L13.3779 21.6431L13.3249 21.5901Z" fill="#82868C" stroke="#82868C" stroke-width="0.15"/>
</svg>
